<svg height="512pt" viewBox="-94 0 512 512.00101" width="512pt" xmlns="http://www.w3.org/2000/svg"><path d="m261.070312 93.945312v130.5625h-127.746093v-130.5625c0-13.375 10.835937-24.222656 24.21875-24.222656h79.304687c13.375 0 24.222656 10.847656 24.222656 24.222656zm0 0" fill="#e53a47"/><path d="m261.070312 93.945312v130.5625h-93.953124v-130.5625c0-13.375 10.847656-24.222656 24.21875-24.222656h45.511718c13.375 0 24.222656 10.847656 24.222656 24.222656zm0 0" fill="#f96065"/><path d="m289.457031 230.519531v240.824219c0 18.257812-14.792969 33.050781-33.050781 33.050781h-215.75c-18.25 0-33.050781-14.792969-33.050781-33.050781v-240.824219c0-18.257812 14.800781-33.050781 33.050781-33.050781h215.75c18.257812 0 33.050781 14.792969 33.050781 33.050781zm0 0" fill="#27425b"/><path d="m289.457031 230.519531v240.824219c0 18.257812-14.792969 33.050781-33.050781 33.050781h-170.125c-18.25 0-33.054688-14.792969-33.054688-33.050781v-240.824219c0-18.257812 14.804688-33.050781 33.054688-33.050781h170.125c18.257812 0 33.050781 14.792969 33.050781 33.050781zm0 0" fill="#405872"/><path d="m261.070312 99.5v68.191406h-20.664062c-13.847656 0-25.082031-11.234375-25.082031-25.09375v-18.003906c0-13.859375 11.234375-25.09375 25.082031-25.09375zm0 0" fill="#aef4e9"/><path d="m179.066406 124.59375v18.003906c0 13.859375-11.230468 25.09375-25.082031 25.09375h-20.664063v-68.191406h20.664063c13.851563 0 25.082031 11.234375 25.082031 25.09375zm0 0" fill="#75cec0"/><path d="m291.515625 328.253906h-2.058594v-79.078125h2.058594c13.21875 0 23.933594 10.71875 23.933594 23.933594v31.210937c0 13.21875-10.714844 23.933594-23.933594 23.933594zm0 0" fill="#f96065"/><path d="m228.25 19.890625v49.832031h-62.117188v-49.832031c0-6.78125 5.503907-12.289063 12.285157-12.289063h37.554687c6.785156 0 12.277344 5.507813 12.277344 12.289063zm0 0" fill="#27425b"/><path d="m228.25 19.890625v49.832031h-38.453125v-49.832031c0-6.78125 5.492187-12.289063 12.277344-12.289063h13.898437c6.785156 0 12.277344 5.507813 12.277344 12.289063zm0 0" fill="#405872"/><path d="m289.457031 413.734375c-4.199219 0-7.601562 3.40625-7.601562 7.605469v50.007812c0 14.03125-11.417969 25.445313-25.449219 25.445313h-16.992188v-229.886719c0-22.414062-18.238281-40.652344-40.65625-40.652344h-183.183593c2.035156-12.007812 12.503906-21.179687 25.082031-21.179687h15.207031c4.199219 0 7.601563-3.40625 7.601563-7.605469s-3.402344-7.605469-7.601563-7.605469h-15.207031c-22.417969 0-40.65625 18.238281-40.65625 40.65625v240.828125c0 22.417969 18.238281 40.652344 40.65625 40.652344h215.75c22.417969 0 40.65625-18.234375 40.65625-40.652344v-50.007812c0-4.199219-3.40625-7.605469-7.605469-7.605469zm-274.246093 57.613281v-229.886718h183.546874c14.03125 0 25.449219 11.414062 25.449219 25.445312v229.886719h-183.550781c-14.03125 0-25.445312-11.414063-25.445312-25.445313zm0 0"/><path d="m297.0625 242.070312v-11.550781c0-18.144531-11.949219-33.546875-28.390625-38.761719v-97.816406c0-17.546875-14.273437-31.824218-31.820313-31.824218h-.992187v-42.230469c0-10.964844-8.921875-19.886719-19.886719-19.886719h-37.550781c-10.96875 0-19.890625 8.921875-19.890625 19.886719v42.230469h-.988281c-17.546875 0-31.824219 14.277343-31.824219 31.824218v95.921875h-39.4375c-4.199219 0-7.605469 3.40625-7.605469 7.605469s3.40625 7.605469 7.605469 7.605469h170.128906c14.03125 0 25.445313 11.414062 25.445313 25.445312v160.402344c0 4.199219 3.402343 7.601563 7.601562 7.601563 4.203125 0 7.605469-3.402344 7.605469-7.601563v-55.5625c14.753906-2.628906 25.992188-15.539063 25.992188-31.039063v-31.207031c0-15.5-11.238282-28.414062-25.992188-31.042969zm-43.597656-81.984374h-13.058594c-9.636719 0-17.480469-7.84375-17.480469-17.488282v-18.003906c0-9.644531 7.84375-17.492188 17.480469-17.492188h13.058594zm-79.722656-140.199219c0-2.578125 2.097656-4.679688 4.679687-4.679688h37.550781c2.578125 0 4.679688 2.101563 4.679688 4.679688v42.230469h-46.910156zm-32.816407 87.214843h13.058594c9.640625 0 17.480469 7.847657 17.480469 17.492188v18.003906c0 9.644532-7.839844 17.488282-17.480469 17.488282h-13.058594zm0 82.761719v-14.566406h13.058594c18.023437 0 32.6875-14.667969 32.6875-32.699219v-18.003906c0-18.03125-14.664063-32.699219-32.6875-32.699219h-12.917969c1.015625-8.195312 8.007813-14.566406 16.476563-14.566406h79.308593c8.46875 0 15.460938 6.371094 16.476563 14.566406h-12.921875c-18.023438 0-32.6875 14.667969-32.6875 32.699219v18.003906c0 18.03125 14.664062 32.699219 32.6875 32.699219h13.058594v14.566406zm166.921875 114.457031c0 7.058594-4.503906 13.085938-10.785156 15.363282v-61.933594c6.28125 2.277344 10.785156 8.300781 10.785156 15.363281zm0 0"/></svg>